<mxfile host="app.diagrams.net" modified="2023-10-11T07:08:31.991Z" agent="Mozilla/5.0 (X11; Linux x86_64) AppleWebKit/537.36 (KHTML, like Gecko) Chrome/114.0.0.0 Safari/537.36" etag="X0UATbODAXOPZyTeRdJ1" version="22.0.4" type="device">
  <diagram name="PÃ¡gina-1" id="cw4z1VwWgXFnd12jDTq0">
    <mxGraphModel dx="714" dy="712" grid="1" gridSize="10" guides="1" tooltips="1" connect="1" arrows="1" fold="1" page="1" pageScale="1" pageWidth="1169" pageHeight="827" math="0" shadow="0">
      <root>
        <mxCell id="0" />
        <mxCell id="1" parent="0" />
        <mxCell id="64g79jcgLvFL4RO8e60z-8" value="" style="edgeStyle=orthogonalEdgeStyle;rounded=0;orthogonalLoop=1;jettySize=auto;html=1;" edge="1" parent="1" source="64g79jcgLvFL4RO8e60z-1" target="64g79jcgLvFL4RO8e60z-5">
          <mxGeometry relative="1" as="geometry" />
        </mxCell>
        <mxCell id="64g79jcgLvFL4RO8e60z-1" value="INICIO" style="rounded=1;whiteSpace=wrap;html=1;" vertex="1" parent="1">
          <mxGeometry x="525" y="10" width="120" height="60" as="geometry" />
        </mxCell>
        <mxCell id="64g79jcgLvFL4RO8e60z-10" value="" style="edgeStyle=orthogonalEdgeStyle;rounded=0;orthogonalLoop=1;jettySize=auto;html=1;" edge="1" parent="1" source="64g79jcgLvFL4RO8e60z-2" target="64g79jcgLvFL4RO8e60z-3">
          <mxGeometry relative="1" as="geometry" />
        </mxCell>
        <mxCell id="64g79jcgLvFL4RO8e60z-2" value="ESCRIBE&lt;br&gt;&quot;Introduce un numero del 0 al 9999&quot;" style="shape=parallelogram;perimeter=parallelogramPerimeter;whiteSpace=wrap;html=1;fixedSize=1;" vertex="1" parent="1">
          <mxGeometry x="525" y="200" width="120" height="60" as="geometry" />
        </mxCell>
        <mxCell id="64g79jcgLvFL4RO8e60z-11" value="" style="edgeStyle=orthogonalEdgeStyle;rounded=0;orthogonalLoop=1;jettySize=auto;html=1;" edge="1" parent="1" source="64g79jcgLvFL4RO8e60z-3" target="64g79jcgLvFL4RO8e60z-6">
          <mxGeometry relative="1" as="geometry" />
        </mxCell>
        <mxCell id="64g79jcgLvFL4RO8e60z-3" value="LEER&lt;br&gt;numero" style="shape=parallelogram;perimeter=parallelogramPerimeter;whiteSpace=wrap;html=1;fixedSize=1;" vertex="1" parent="1">
          <mxGeometry x="525" y="310" width="120" height="60" as="geometry" />
        </mxCell>
        <mxCell id="64g79jcgLvFL4RO8e60z-9" value="" style="edgeStyle=orthogonalEdgeStyle;rounded=0;orthogonalLoop=1;jettySize=auto;html=1;" edge="1" parent="1" source="64g79jcgLvFL4RO8e60z-5" target="64g79jcgLvFL4RO8e60z-2">
          <mxGeometry relative="1" as="geometry" />
        </mxCell>
        <mxCell id="64g79jcgLvFL4RO8e60z-5" value="&lt;div&gt;int numero;&lt;/div&gt;&lt;div&gt;&amp;nbsp; &amp;nbsp; &amp;nbsp; &amp;nbsp; String entrada;&lt;/div&gt;" style="rounded=0;whiteSpace=wrap;html=1;" vertex="1" parent="1">
          <mxGeometry x="525" y="110" width="120" height="60" as="geometry" />
        </mxCell>
        <mxCell id="64g79jcgLvFL4RO8e60z-12" value="" style="edgeStyle=orthogonalEdgeStyle;rounded=0;orthogonalLoop=1;jettySize=auto;html=1;" edge="1" parent="1" source="64g79jcgLvFL4RO8e60z-6" target="64g79jcgLvFL4RO8e60z-7">
          <mxGeometry relative="1" as="geometry" />
        </mxCell>
        <mxCell id="64g79jcgLvFL4RO8e60z-6" value="entrada= String.valueOf(numero);" style="rounded=0;whiteSpace=wrap;html=1;" vertex="1" parent="1">
          <mxGeometry x="525" y="414" width="120" height="60" as="geometry" />
        </mxCell>
        <mxCell id="64g79jcgLvFL4RO8e60z-14" value="" style="edgeStyle=orthogonalEdgeStyle;rounded=0;orthogonalLoop=1;jettySize=auto;html=1;" edge="1" parent="1" source="64g79jcgLvFL4RO8e60z-7" target="64g79jcgLvFL4RO8e60z-13">
          <mxGeometry relative="1" as="geometry" />
        </mxCell>
        <mxCell id="64g79jcgLvFL4RO8e60z-7" value="ESCRIBE&lt;br&gt;&quot;Tu numero tiene &quot;+entrada.length()+&quot; cifras&quot;" style="shape=parallelogram;perimeter=parallelogramPerimeter;whiteSpace=wrap;html=1;fixedSize=1;" vertex="1" parent="1">
          <mxGeometry x="525" y="540" width="120" height="60" as="geometry" />
        </mxCell>
        <mxCell id="64g79jcgLvFL4RO8e60z-13" value="FIN" style="rounded=1;whiteSpace=wrap;html=1;" vertex="1" parent="1">
          <mxGeometry x="525" y="670" width="120" height="60" as="geometry" />
        </mxCell>
      </root>
    </mxGraphModel>
  </diagram>
</mxfile>
